#!OML:ASF H:\MichaelJackson\Top Level 1\Subject 1\Session 1\male.ASF
:FULLY-SPECIFIED
:DEGREES
658
root -3.5243 16.7822 23.3138 -173.208 -48.8771 -178.823
lowerback -1.57273 0.999879 -0.747438
upperback 0.9754 1.35858 -2.08535
thorax 1.91479 0.670318 -1.67645
lowerneck -10.144 2.23418 8.63157
upperneck 20.1332 1.30673 -1.52247
head 7.9948 0.936468 -1.8399
rclavicle -4.63168e-014 -7.95139e-015
rhumerus 36.5827 37.0018 1.71302
rradius 73.5297
rwrist 32.0815
rhand 7.1387 -4.54328
rfingers 7.12502
rthumb 32.4077 -391.667
lclavicle -4.63168e-014 -7.95139e-015
lhumerus -59.9122 -11.0359 95.3589
lradius 61.5207
lwrist 20.0263
lhand -28.7224 20.9154
lfingers 7.12502
lthumb -2.08363 50.8849
rfemur -36.5994 1.08104 22.529
rtibia 34.9863
rfoot -2.42815 -9.24887
rtoes 27.359
lfemur -9.83685 2.18792 -13.9338
ltibia 53.6744
lfoot -4.99013 -15.1676
ltoes 12.2129
659
root -3.43156 16.7813 23.4215 -172.707 -49.5291 -179.366
lowerback -1.67144 0.768888 -1.00678
upperback 0.97508 1.05826 -1.97888
thorax 1.95576 0.516643 -1.43009
lowerneck -10.2424 2.35963 8.57924
upperneck 20.2936 1.52018 -1.72396
head 8.07704 1.01812 -1.87782
rclavicle 3.66758e-014 3.18055e-014
rhumerus 35.454 35.6197 -0.502092
rradius 74.3959
rwrist 32.5774
rhand 5.13788 -4.60834
rfingers 7.12502
rthumb 30.5015 -392.104
lclavicle 3.66758e-014 3.18055e-014
lhumerus -59.7297 -11.8151 96.0269
lradius 61.0102
lwrist 19.8624
lhand -28.5385 21.9934
lfingers 7.12502
lthumb -1.90595 51.9646
rfemur -37.059 0.913896 21.8971
rtibia 34.6477
rfoot -1.55606 -9.69737
rtoes 27.0417
lfemur -8.52786 2.68337 -14.5792
ltibia 51.4452
lfoot -8.78339 -11.9206
ltoes 6.4152
660
root -3.3379 16.7806 23.5315 -172.19 -50.2008 -179.906
lowerback -1.74742 0.577955 -1.2198
upperback 0.947381 0.809677 -1.91048
thorax 1.96153 0.389507 -1.24813
lowerneck -10.2617 2.44265 8.62839
upperneck 20.4159 1.66441 -1.93162
head 8.13061 1.0723 -1.94173
rclavicle -1.39149e-015 7.95139e-015
rhumerus 34.098 34.2861 -2.89947
rradius 75.2845
rwrist 33.0082
rhand 2.78651 -4.64171
rfingers 7.12502
rthumb 28.2565 -392.531
lclavicle -1.39149e-015 7.95139e-015
lhumerus -59.5793 -12.8803 96.7706
lradius 60.5228
lwrist 19.6692
lhand -28.2499 23.1102
lfingers 7.12502
lthumb -1.62725 53.0837
rfemur -37.5075 0.747657 21.2501
rtibia 34.2664
rfoot -0.637516 -10.1587
rtoes 26.6347
lfemur -7.3514 3.14007 -15.2113
ltibia 49.1762
lfoot -11.8739 -8.71041
ltoes 0.887694
661
root -3.24264 16.7807 23.6437 -171.65 -50.8987 -180.451
lowerback -1.80135 0.388247 -1.4245
upperback 0.916973 0.562172 -1.83833
thorax 1.95464 0.263143 -1.0675
lowerneck -10.2672 2.51837 8.68676
upperneck 20.5009 1.80083 -2.14027
head 8.16927 1.1231 -2.00807
rclavicle -5.08889e-014 2.38542e-015
rhumerus 32.7107 32.9447 -5.33319
rradius 76.1996
rwrist 33.2933
rhand 0.222666 -4.71232
rfingers 7.12502
rthumb 25.8036 -392.982
lclavicle -5.08889e-014 2.38542e-015
lhumerus -59.4032 -14.0966 97.5798
lradius 60.0702
lwrist 19.436
lhand -27.8399 24.2432
lfingers 7.12502
lthumb -1.23133 54.2194
rfemur -37.9422 0.581368 20.5832
rtibia 33.8274
rfoot 0.348579 -10.6343
rtoes 26.1185
lfemur -6.35341 3.55801 -15.8243
ltibia 46.9578
lfoot -14.4042 -5.74155
ltoes -3.96804
662
root -3.14536 16.7828 23.7577 -171.089 -51.63 -181.001
lowerback -1.82778 0.201412 -1.62232
upperback 0.886059 0.317709 -1.76183
thorax 1.93419 0.138544 -0.886491
lowerneck -10.2448 2.58324 8.74913
upperneck 20.5286 1.92638 -2.34463
head 8.18342 1.16923 -2.07438
rclavicle -4.21423e-014 -1.55052e-014
rhumerus 31.3011 31.5964 -7.78493
rradius 77.1203
rwrist 33.4787
rhand -2.58513 -4.80884
rfingers 7.12502
rthumb 23.1121 -393.443
lclavicle -4.21423e-014 -1.55052e-014
lhumerus -59.2076 -15.4696 98.4389
lradius 59.6678
lwrist 19.1633
lhand -27.2572 25.3605
lfingers 7.12502
lthumb -0.668493 55.3392
rfemur -38.3492 0.425081 19.8918
rtibia 33.316
rfoot 1.40461 -11.1418
rtoes 25.5776
lfemur -5.5689 3.93058 -16.4042
ltibia 44.8873
lfoot -16.4686 -3.15536
ltoes -7.81585
663
root -3.04511 16.7883 23.8732 -170.5 -52.3908 -181.572
lowerback -1.81515 0.0192441 -1.81469
upperback 0.860471 0.0782622 -1.68983
thorax 1.89962 0.0166495 -0.71309
lowerneck -10.2081 2.6373 8.79954
upperneck 20.4962 2.03955 -2.52791
head 8.17398 1.21066 -2.13236
rclavicle -3.83654e-014 -4.53229e-014
rhumerus 29.8762 30.2347 -10.2489
rradius 78.0429
rwrist 33.6152
rhand -5.58626 -4.92612
rfingers 7.12502
rthumb 20.23 -393.893
lclavicle -3.83654e-014 -4.53229e-014
lhumerus -58.9882 -17.0003 99.3222
lradius 59.3362
lwrist 18.8853
lhand -26.5174 26.4652
lfingers 7.12502
lthumb 0.0459977 56.445
rfemur -38.7215 0.30939 19.1556
rtibia 32.728
rfoot 2.5403 -11.7023
rtoes 25.0736
lfemur -5.02859 4.25914 -16.9472
ltibia 43.047
lfoot -18.1246 -1.07058
ltoes -10.5982
664
root -2.94121 16.7975 23.9893 -169.885 -53.167 -182.174
lowerback -1.75578 -0.163351 -2.02992
upperback 0.84909 -0.162629 -1.61671
thorax 1.85568 -0.106214 -0.525537
lowerneck -10.1586 2.68917 8.83075
upperneck 20.4006 2.15363 -2.69125
head 8.14088 1.25317 -2.17975
rclavicle -1.49089e-014 -1.98785e-014
rhumerus 28.4782 28.864 -12.7012
rradius 78.9719
rwrist 33.7437
rhand -8.73884 -5.06435
rfingers 7.12502
rthumb 17.1978 -394.323
lclavicle -1.49089e-014 -1.98785e-014
lhumerus -58.7313 -18.6345 100.187
lradius 59.0905
lwrist 18.6284
lhand -25.5296 27.4351
lfingers 7.12502
lthumb 1.00006 57.4125
rfemur -39.0475 0.281084 18.3532
rtibia 32.0704
rfoot 3.75458 -12.3529
rtoes 24.6769
lfemur -4.7399 4.56696 -17.4455
ltibia 41.4896
lfoot -19.4158 0.452513
ltoes -12.4642
665
root -2.83351 16.8098 24.1061 -169.242 -53.9419 -182.834
lowerback -1.63229 -0.336418 -2.24682
upperback 0.85628 -0.39312 -1.57638
thorax 1.79689 -0.223937 -0.369654
lowerneck -10.0958 2.73648 8.87034
upperneck 20.2473 2.25766 -2.8277
head 8.08572 1.29426 -2.21998
rclavicle 2.08724e-015 1.55052e-014
rhumerus 27.0764 27.4866 -15.1857
rradius 79.9047
rwrist 33.9071
rhand -11.9907 -5.21167
rfingers 7.12502
rthumb 14.066 -394.716
lclavicle 2.08724e-015 1.55052e-014
lhumerus -58.433 -20.3772 100.954
lradius 58.9303
lwrist 18.3614
lhand -24.235 28.2046
lfingers 7.12502
lthumb 2.25038 58.1725
rfemur -39.3207 0.347439 17.4675
rtibia 31.3688
rfoot 5.02806 -13.0984
rtoes 24.452
lfemur -4.67862 4.84996 -17.9122
ltibia 40.2349
lfoot -20.4017 1.41023
ltoes -13.6082
666
root -2.7218 16.8241 24.2225 -168.585 -54.6775 -183.546
lowerback -1.4534 -0.487605 -2.49948
upperback 0.897445 -0.595794 -1.54383
thorax 1.74382 -0.328517 -0.199941
lowerneck -10.0392 2.7772 8.87269
upperneck 20.0425 2.35685 -2.94102
head 8.01349 1.33289 -2.24617
rclavicle 3.40916e-014 5.1684e-015
rhumerus 25.6944 26.0948 -17.6503
rradius 80.8451
rwrist 34.1168
rhand -15.2981 -5.35918
rfingers 7.12502
rthumb 10.8772 -395.057
lclavicle 3.40916e-014 5.1684e-015
lhumerus -58.0488 -22.1758 101.619
lradius 58.8506
lwrist 18.1
lhand -22.5899 28.7163
lfingers 7.12502
lthumb 3.83909 58.6615
rfemur -39.5507 0.529018 16.5121
rtibia 30.6634
rfoot 6.34189 -13.9436
rtoes 24.3609
lfemur -4.81088 5.14349 -18.3388
ltibia 39.2771
lfoot -21.1586 1.81167
ltoes -14.1871
667
root -2.60645 16.8397 24.3377 -167.952 -55.3262 -184.286
lowerback -1.20298 -0.61646 -2.78844
upperback 0.968365 -0.771545 -1.52506
thorax 1.68294 -0.420432 -0.0219556
lowerneck -9.98665 2.82941 8.88034
upperneck 19.8133 2.47135 -3.05552
head 7.93536 1.37935 -2.27182
rclavicle 4.96962e-017 -3.02153e-014
rhumerus 24.3601 24.72 -20.1211
rradius 81.7959
rwrist 34.381
rhand -18.6201 -5.47919
rfingers 7.12502
rthumb 7.67187 -395.32
lclavicle 4.96962e-017 -3.02153e-014
lhumerus -57.5688 -23.9588 102.111
lradius 58.8464
lwrist 17.8444
lhand -20.5439 28.8936
lfingers 7.12502
lthumb 5.81468 58.7938
rfemur -39.7465 0.834065 15.519
rtibia 30.0022
rfoot 7.65345 -14.8805
rtoes 24.6255
lfemur -5.08188 5.47861 -18.717
ltibia 38.5961
lfoot -21.761 1.71094
ltoes -14.3122
668
root -2.48777 16.8557 24.4518 -167.36 -55.8635 -185.033
lowerback -0.88759 -0.708266 -3.11267
upperback 1.06806 -0.901402 -1.50671
thorax 1.61642 -0.490292 0.17795
lowerneck -9.94396 2.88569 8.8756
upperneck 19.5761 2.59706 -3.19045
head 7.8573 1.42868 -2.30102
rclavicle -3.96078e-014 -1.19271e-015
rhumerus 23.0588 23.3606 -22.573
rradius 82.7522
rwrist 34.6983
rhand -21.9353 -5.54017
rfingers 7.12502
rthumb 4.47123 -395.473
lclavicle -3.96078e-014 -1.19271e-015
lhumerus -56.9693 -25.7076 102.44
lradius 58.9052
lwrist 17.606
lhand -18.1252 28.7479
lfingers 7.12502
lthumb 8.14951 58.5707
rfemur -39.9361 1.18963 14.5539
rtibia 29.4337
rfoot 8.95725 -15.8078
rtoes 25.0735
lfemur -5.46657 5.86436 -19.0532
ltibia 38.1688
lfoot -22.2429 1.19952
ltoes -14.1029
669
root -2.36683 16.8709 24.5651 -166.867 -56.2576 -185.719
lowerback -0.511928 -0.750652 -3.43054
upperback 1.19147 -0.97014 -1.48337
thorax 1.54005 -0.529946 0.382123
lowerneck -9.91619 2.94689 8.8547
upperneck 19.3479 2.73448 -3.34636
head 7.78588 1.48079 -2.3334
rclavicle 1.18824e-013 -7.95139e-015
rhumerus 21.7919 22.0285 -24.9969
rradius 83.721
rwrist 34.9869
rhand -25.1508 -5.56443
rfingers 7.12502
rthumb 1.36589 -395.54
lclavicle 1.18824e-013 -7.95139e-015
lhumerus -56.2445 -27.4036 102.599
lradius 59.0237
lwrist 17.3932
lhand -15.3488 28.3249
lfingers 7.12502
lthumb 10.8283 58.0257
rfemur -40.1423 1.50585 13.7285
rtibia 29.001
rfoot 10.2528 -16.5677
rtoes 25.5346
lfemur -5.93435 6.31802 -19.3325
ltibia 37.9737
lfoot -22.63 0.378285
ltoes -13.6284
670
root -2.24452 16.8848 24.6777 -166.519 -56.496 -186.285
lowerback -0.0872004 -0.73579 -3.70266
upperback 1.3303 -0.967748 -1.45728
thorax 1.44939 -0.533773 0.565759
lowerneck -9.89245 3.0121 8.84639
upperneck 19.1369 2.88138 -3.54381
head 7.72256 1.53472 -2.38092
rclavicle 4.64162e-014 1.68967e-014
rhumerus 20.5396 20.7208 -27.4183
rradius 84.6747
rwrist 35.2817
rhand -28.3157 -5.46231
rfingers 7.12502
rthumb -1.69082 -395.435
lclavicle 4.64162e-014 1.68967e-014
lhumerus -55.4111 -29.0569 102.592
lradius 59.2104
lwrist 17.2174
lhand -12.2801 27.6928
lfingers 7.12502
lthumb 13.7871 57.2159
rfemur -40.3819 1.68123 13.1474
rtibia 28.7391
rfoot 11.5247 -17.0007
rtoes 25.8638
lfemur -6.47049 6.83491 -19.5535
ltibia 37.9966
lfoot -22.9336 -0.619601
ltoes -12.9489
671
root -2.12175 16.897 24.7903 -166.339 -56.5786 -186.69
lowerback 0.371402 -0.669901 -3.89728
upperback 1.47584 -0.90181 -1.4284
thorax 1.34272 -0.504971 0.709992
lowerneck -9.86776 3.08703 8.85649
upperneck 18.9506 3.04317 -3.77711
head 7.66951 1.59387 -2.44221
rclavicle 5.10877e-014 -1.68967e-014
rhumerus 19.3181 19.456 -29.841
rradius 85.6273
rwrist 35.5182
rhand -31.3343 -5.29155
rfingers 7.12502
rthumb -4.60597 -395.221
lclavicle 5.10877e-014 -1.68967e-014
lhumerus -54.4832 -30.6563 102.425
lradius 59.4741
lwrist 17.0857
lhand -9.10364 27.0346
lfingers 7.12502
lthumb 16.8467 56.3238
rfemur -40.6697 1.61478 12.9012
rtibia 28.6739
rfoot 12.7631 -16.949
rtoes 25.8445
lfemur -7.0717 7.41178 -19.7214
ltibia 38.2225
lfoot -23.1539 -1.63263
ltoes -12.1988
672
root -1.99902 16.9068 24.9035 -166.318 -56.5313 -186.925
lowerback 0.848597 -0.569539 -3.99922
upperback 1.62434 -0.792668 -1.38986
thorax 1.22504 -0.453451 0.812042
lowerneck -9.84638 3.17723 8.86506
upperneck 18.7867 3.23 -4.04116
head 7.6271 1.66216 -2.51117
rclavicle 3.68249e-014 9.74045e-015
rhumerus 18.1767 18.2239 -32.2404
rradius 86.5313
rwrist 35.7559
rhand -34.2516 -4.98928
rfingers 7.12502
rthumb -7.42238 -394.839
lclavicle 3.68249e-014 9.74045e-015
lhumerus -53.4874 -32.2151 102.119
lradius 59.856
lwrist 17.0282
lhand -5.94472 26.4361
lfingers 7.12502
lthumb 19.8855 55.4388
rfemur -41.0125 1.24786 13.026
rtibia 28.8226
rfoot 13.9141 -16.3442
rtoes 25.3672
lfemur -7.74497 8.02671 -19.8545
ltibia 38.6336
lfoot -23.2877 -2.54596
ltoes -11.4078
